<svg viewBox="0 0 1200 800" xmlns="http://www.w3.org/2000/svg">
  <defs>
    <linearGradient id="bg" x1="0%" y1="0%" x2="100%" y2="100%">
      <stop offset="0%" style="stop-color:#1e3a8a;stop-opacity:1" />
      <stop offset="50%" style="stop-color:#3730a3;stop-opacity:1" />
      <stop offset="100%" style="stop-color:#581c87;stop-opacity:1" />
    </linearGradient>
    <linearGradient id="glow" x1="0%" y1="0%" x2="100%" y2="100%">
      <stop offset="0%" style="stop-color:#60a5fa;stop-opacity:0.3" />
      <stop offset="100%" style="stop-color:#a78bfa;stop-opacity:0.1" />
    </linearGradient>
  </defs>
  
  <!-- Background -->
  <rect width="1200" height="800" fill="url(#bg)"/>
  
  <!-- Neural Network Nodes -->
  <g opacity="0.4">
    <circle cx="150" cy="200" r="3" fill="#60a5fa"/>
    <circle cx="300" cy="150" r="4" fill="#a78bfa"/>
    <circle cx="450" cy="250" r="3" fill="#34d399"/>
    <circle cx="600" cy="180" r="5" fill="#fbbf24"/>
    <circle cx="750" cy="220" r="3" fill="#f472b6"/>
    <circle cx="900" cy="160" r="4" fill="#60a5fa"/>
    <circle cx="1050" cy="200" r="3" fill="#a78bfa"/>
    
    <circle cx="200" cy="400" r="4" fill="#34d399"/>
    <circle cx="350" cy="450" r="3" fill="#60a5fa"/>
    <circle cx="500" cy="380" r="5" fill="#a78bfa"/>
    <circle cx="650" cy="420" r="3" fill="#fbbf24"/>
    <circle cx="800" cy="390" r="4" fill="#f472b6"/>
    <circle cx="950" cy="430" r="3" fill="#60a5fa"/>
    
    <circle cx="100" cy="600" r="3" fill="#a78bfa"/>
    <circle cx="250" cy="650" r="4" fill="#34d399"/>
    <circle cx="400" cy="580" r="3" fill="#60a5fa"/>
    <circle cx="550" cy="620" r="5" fill="#fbbf24"/>
    <circle cx="700" cy="590" r="3" fill="#f472b6"/>
    <circle cx="850" cy="630" r="4" fill="#a78bfa"/>
    <circle cx="1000" cy="600" r="3" fill="#60a5fa"/>
  </g>
  
  <!-- Connection Lines -->
  <g opacity="0.2" stroke-width="1">
    <line x1="150" y1="200" x2="300" y2="150" stroke="#60a5fa"/>
    <line x1="300" y1="150" x2="450" y2="250" stroke="#a78bfa"/>
    <line x1="450" y1="250" x2="600" y2="180" stroke="#34d399"/>
    <line x1="600" y1="180" x2="750" y2="220" stroke="#fbbf24"/>
    <line x1="750" y1="220" x2="900" y2="160" stroke="#f472b6"/>
    
    <line x1="200" y1="400" x2="350" y2="450" stroke="#34d399"/>
    <line x1="350" y1="450" x2="500" y2="380" stroke="#60a5fa"/>
    <line x1="500" y1="380" x2="650" y2="420" stroke="#a78bfa"/>
    <line x1="650" y1="420" x2="800" y2="390" stroke="#fbbf24"/>
    
    <line x1="150" y1="200" x2="200" y2="400" stroke="#60a5fa"/>
    <line x1="300" y1="150" x2="350" y2="450" stroke="#a78bfa"/>
    <line x1="450" y1="250" x2="500" y2="380" stroke="#34d399"/>
    <line x1="600" y1="180" x2="650" y2="420" stroke="#fbbf24"/>
  </g>
  
  <!-- Floating Geometric Elements -->
  <g opacity="0.3">
    <rect x="800" y="100" width="20" height="20" fill="none" stroke="#60a5fa" stroke-width="2" transform="rotate(45 810 110)"/>
    <rect x="200" y="300" width="15" height="15" fill="none" stroke="#a78bfa" stroke-width="2" transform="rotate(30 207.5 307.5)"/>
    <rect x="600" y="500" width="18" height="18" fill="none" stroke="#34d399" stroke-width="2" transform="rotate(60 609 509)"/>
    
    <polygon points="400,100 420,130 380,130" fill="none" stroke="#fbbf24" stroke-width="2"/>
    <polygon points="900,400 920,430 880,430" fill="none" stroke="#f472b6" stroke-width="2"/>
    
    <circle cx="100" cy="350" r="12" fill="none" stroke="#60a5fa" stroke-width="2"/>
    <circle cx="1000" cy="300" r="10" fill="none" stroke="#a78bfa" stroke-width="2"/>
  </g>
  
  <!-- Data Flow Particles -->
  <g opacity="0.6">
    <circle cx="250" cy="200" r="2" fill="#60a5fa">
      <animateMotion dur="8s" repeatCount="indefinite">
        <path d="M0,0 Q200,100 400,0 T800,0"/>
      </animateMotion>
    </circle>
    <circle cx="300" cy="400" r="1.5" fill="#a78bfa">
      <animateMotion dur="10s" repeatCount="indefinite">
        <path d="M0,0 Q150,-50 300,0 T600,0"/>
      </animateMotion>
    </circle>
    <circle cx="500" cy="600" r="2" fill="#34d399">
      <animateMotion dur="12s" repeatCount="indefinite">
        <path d="M0,0 Q-100,-100 0,-200 T0,-400"/>
      </animateMotion>
    </circle>
  </g>
  
  <!-- Central Glow Effect -->
  <ellipse cx="600" cy="400" rx="300" ry="200" fill="url(#glow)" opacity="0.1"/>
</svg>