<svg xmlns="http://www.w3.org/2000/svg" viewBox="0 0 2500 2500"><path fill="#3178c6" d="M0 0h2500v2500H0z"/><path fill="#fff" d="M725 1060v130h330v675h170v-675h325v-130zm910 0c-47 2-83 10-115 24-31 13-55 30-75 51-18 18-31 40-38 63-7 22-10 47-10 73h169c1-23 7-41 17-56 10-13 25-22 43-28s40-8 66-5 49 9 68 20c18 9 33 22 44 39 10 15 15 33 15 55 0 25-6 44-17 59-11 14-28 26-50 35-23 9-53 16-90 21-47 7-88 16-121 27s-63 27-88 47c-23 19-40 42-53 68-12 26-18 59-18 97 0 47 11 88 33 122 22 35 52 62 92 82 40 21 88 32 144 35 54 3 105-4 154-20 47-15 83-38 110-70 27-31 41-68 44-109h-165c-3 24-13 43-29 59s-41 26-75 29-66-2-92-12c-27-10-46-23-59-41-12-18-19-39-19-64 0-27 6-48 18-64 12-17 30-30 55-39s61-18 105-26c67-10 121-25 162-44 40-19 70-44 91-75 20-30 31-67 31-110 0-47-9-88-28-123-18-35-48-64-88-85-41-21-93-32-157-32z"/></svg>