<svg xmlns="http://www.w3.org/2000/svg" viewBox="0 0 2500 2500">
  <rect width="2500" height="2500" fill="#3178c6"/>
  <path fill="#fff" d="M1106 1235h246v973h-246zm730 503c27-1 54 1 80 6 42 8 74 23 105 45 30 22 49 47 65 76 13 25 21 56 22 94h-251c-3-32-13-57-31-75-18-18-42-27-73-28-34-2-59 7-77 26-17 18-25 41-24 68-1 31 12 54 37 69 16 10 53 21 110 35 83 21 144 39 181 57 37 17 70 43 100 78 30 34 44 82 44 142 0 51-13 97-39 137-26 40-64 70-115 90-50 20-113 30-187 29-72 0-134-10-186-29-52-19-95-49-130-89-34-40-55-90-63-149l242-9c4 36 15 63 35 83 20 20 47 30 82 31 38 2 67-6 87-24 21-18 31-41 30-70 0-22-8-41-23-56-15-15-42-28-80-39-10-3-37-10-82-21-57-14-99-29-126-45-28-16-52-38-71-67-20-29-29-67-29-112 0-50 13-95 40-133 27-39 65-68 113-88 48-20 104-30 167-30z"/>
</svg>

